<svg version="1.1" id="Layer_1" xmlns="http://www.w3.org/2000/svg" xmlns:xlink="http://www.w3.org/1999/xlink" x="0px" y="0px"
	 viewBox="0 0 161.9 11.8" style="enable-background:new 0 0 161.9 11.8;" xml:space="preserve">
<style type="text/css">
	.st0{fill:#555555;}
	.st1{fill:#939598;}
	.st2{fill:#FFFFFF;}
</style>
<g>
	<path class="st0" d="M0,10.5l0.7-1.6c0.9,0.7,2.3,1.2,3.6,1.2c1.7,0,2.4-0.6,2.4-1.4c0-2.4-6.5-0.8-6.5-4.9c0-1.8,1.4-3.3,4.4-3.3
		c1.3,0,2.7,0.3,3.7,1L7.7,3.1c-1-0.6-2.1-0.9-3-0.9c-1.7,0-2.4,0.7-2.4,1.5c0,2.3,6.5,0.8,6.5,4.8c0,1.8-1.4,3.3-4.4,3.3
		C2.6,11.8,0.9,11.3,0,10.5z"/>
	<path class="st0" d="M18.5,6.8v4.8h-2V7.1c0-1.5-0.7-2.2-2-2.2c-1.4,0-2.3,0.8-2.3,2.5v4.2h-2V0h2v4.2c0.6-0.7,1.6-1.1,2.8-1.1
		C17.1,3.2,18.5,4.3,18.5,6.8z"/>
	<path class="st0" d="M27.7,6.7v4.9h-1.9v-1c-0.5,0.7-1.4,1.1-2.6,1.1c-1.9,0-3.1-1.1-3.1-2.5c0-1.4,0.9-2.5,3.5-2.5h2.2V6.6
		c0-1.1-0.7-1.8-2.1-1.8c-0.9,0-1.9,0.3-2.5,0.8l-0.8-1.4c0.9-0.7,2.2-1,3.5-1C26.3,3.2,27.7,4.3,27.7,6.7z M25.8,9V8h-2
		c-1.3,0-1.7,0.5-1.7,1.1c0,0.7,0.6,1.2,1.6,1.2C24.6,10.3,25.5,9.9,25.8,9z"/>
	<path class="st0" d="M34.8,3.2V5c-0.2,0-0.3,0-0.5,0c-1.5,0-2.4,0.9-2.4,2.6v4.1h-2V3.3h1.9v1.2C32.4,3.6,33.4,3.2,34.8,3.2z"/>
	<path class="st0" d="M43.9,8.1h-6.6c0.2,1.2,1.3,2,2.7,2c0.9,0,1.7-0.3,2.3-0.9l1.1,1.2c-0.8,0.9-1.9,1.4-3.4,1.4
		c-2.8,0-4.6-1.8-4.6-4.3s1.8-4.3,4.3-4.3c2.4,0,4.2,1.7,4.2,4.3C43.9,7.7,43.9,7.9,43.9,8.1z M37.3,6.8h4.8c-0.2-1.2-1.1-2-2.4-2
		C38.4,4.7,37.5,5.6,37.3,6.8z"/>
	<path class="st0" d="M53.8,6.8v4.8h-2V7.1c0-1.5-0.7-2.2-2-2.2c-1.4,0-2.3,0.8-2.3,2.5v4.2h-2V0h2v4.2c0.6-0.7,1.6-1.1,2.8-1.1
		C52.3,3.2,53.8,4.3,53.8,6.8z"/>
	<path class="st0" d="M55.3,7.5c0-2.5,1.9-4.3,4.5-4.3c2.6,0,4.5,1.8,4.5,4.3s-1.9,4.3-4.5,4.3C57.2,11.7,55.3,10,55.3,7.5z
		 M62.3,7.5c0-1.6-1.1-2.6-2.5-2.6c-1.4,0-2.5,1-2.5,2.6c0,1.6,1.1,2.6,2.5,2.6C61.2,10.1,62.3,9.1,62.3,7.5z"/>
	<path class="st0" d="M65.8,0h2v11.6h-2V0z"/>
	<path class="st0" d="M78.3,0v11.6h-1.9v-1.1c-0.7,0.8-1.6,1.2-2.8,1.2c-2.4,0-4.2-1.7-4.2-4.3c0-2.6,1.8-4.3,4.2-4.3
		c1.1,0,2,0.4,2.7,1.1V0H78.3z M76.3,7.5c0-1.6-1.1-2.6-2.5-2.6c-1.4,0-2.5,1-2.5,2.6c0,1.6,1.1,2.6,2.5,2.6
		C75.2,10.1,76.3,9.1,76.3,7.5z"/>
	<path class="st0" d="M88.4,8.1h-6.6c0.2,1.2,1.3,2,2.7,2c0.9,0,1.7-0.3,2.3-0.9l1.1,1.2c-0.8,0.9-1.9,1.4-3.4,1.4
		c-2.8,0-4.6-1.8-4.6-4.3s1.8-4.3,4.3-4.3c2.4,0,4.2,1.7,4.2,4.3C88.4,7.7,88.4,7.9,88.4,8.1z M81.8,6.8h4.8c-0.2-1.2-1.1-2-2.4-2
		C82.9,4.7,82,5.6,81.8,6.8z"/>
	<path class="st0" d="M94.8,3.2V5c-0.2,0-0.3,0-0.5,0c-1.5,0-2.4,0.9-2.4,2.6v4.1h-2V3.3h1.9v1.2C92.4,3.6,93.4,3.2,94.8,3.2z"/>
	<path class="st0" d="M95.2,10.8L96,9.3c0.7,0.5,1.9,0.8,2.9,0.8c1.2,0,1.8-0.3,1.8-0.9c0-1.6-5.2-0.1-5.2-3.4
		c0-1.6,1.4-2.6,3.7-2.6c1.1,0,2.4,0.3,3.1,0.7l-0.8,1.5c-0.8-0.5-1.6-0.6-2.4-0.6c-1.2,0-1.8,0.4-1.8,0.9c0,1.7,5.2,0.2,5.2,3.5
		c0,1.6-1.4,2.6-3.8,2.6C97.4,11.7,96,11.3,95.2,10.8z"/>
	<path class="st1" d="M106.2,2.4v3.3h5.3v1.7h-5.3v4.2h-2v-11h8v1.7H106.2z"/>
	<path class="st1" d="M112.7,7.5c0-2.5,1.9-4.3,4.5-4.3c2.6,0,4.5,1.8,4.5,4.3s-1.9,4.3-4.5,4.3C114.6,11.7,112.7,10,112.7,7.5z
		 M119.7,7.5c0-1.6-1.1-2.6-2.5-2.6c-1.4,0-2.5,1-2.5,2.6c0,1.6,1.1,2.6,2.5,2.6C118.6,10.1,119.7,9.1,119.7,7.5z"/>
	<path class="st1" d="M128.1,3.2V5c-0.2,0-0.3,0-0.5,0c-1.5,0-2.4,0.9-2.4,2.6v4.1h-2V3.3h1.9v1.2C125.7,3.6,126.7,3.2,128.1,3.2z"
		/>
	<path class="st2" d="M128.9,10.5l0.7-1.6c0.9,0.7,2.3,1.2,3.6,1.2c1.7,0,2.4-0.6,2.4-1.4c0-2.4-6.5-0.8-6.5-4.9
		c0-1.8,1.4-3.3,4.4-3.3c1.3,0,2.7,0.3,3.7,1l-0.6,1.6c-1-0.6-2.1-0.9-3-0.9c-1.7,0-2.4,0.7-2.4,1.5c0,2.3,6.5,0.8,6.5,4.8
		c0,1.8-1.4,3.3-4.4,3.3C131.5,11.8,129.8,11.3,128.9,10.5z"/>
	<path class="st2" d="M149.5,11.6l0-7.3l-3.6,6h-0.9l-3.6-5.9v7.2h-1.9v-11h1.7l4.4,7.3l4.3-7.3h1.7l0,11H149.5z"/>
	<path class="st2" d="M156.3,2.4h-3.6V0.7h9.3v1.7h-3.6v9.3h-2V2.4z"/>
</g>
</svg>