<svg version="1.1" id="Layer_1" xmlns="http://www.w3.org/2000/svg" xmlns:xlink="http://www.w3.org/1999/xlink" x="0px" y="0px"
	 viewBox="0 0 74.2 8.3" style="enable-background:new 0 0 74.2 8.3;" xml:space="preserve">
<style type="text/css">
	.st0{fill:#FFFFFF;}
	.st1{fill:#A7A9AC;}
	.st2{fill:#28A8E0;}
</style>
<g>
	<path class="st0" d="M0.2,7.1C0.5,7.2,1,7.4,1.5,7.4c0.7,0,1-0.3,1-0.8s-0.3-0.7-1-1c-0.8-0.4-1.4-1-1.4-1.8c0-1,0.8-1.7,2-1.7
		c0.6,0,1,0.1,1.3,0.3L3.2,3.2C3,3.1,2.6,2.9,2.1,2.9c-0.7,0-0.9,0.4-0.9,0.7c0,0.5,0.3,0.7,1.1,1c1,0.4,1.4,1,1.4,1.8
		c0,1-0.7,1.8-2.2,1.8C0.9,8.3,0.3,8.1,0,7.9L0.2,7.1z"/>
	<path class="st0" d="M4.3,1.9h1.1v2.5l0,0C5.5,4.2,5.7,4,5.9,3.9c0.2-0.1,0.4-0.2,0.7-0.2C7.4,3.7,8,4.3,8,5.6v2.6H7V5.7
		c0-0.6-0.2-1.1-0.7-1.1c-0.4,0-0.7,0.3-0.8,0.6c0,0.1,0,0.2,0,0.3v2.7H4.3V1.9z"/>
	<path class="st0" d="M11.2,8.2l-0.1-0.5l0,0C10.8,8,10.4,8.3,9.9,8.3C9.1,8.3,8.6,7.7,8.6,7c0-1.1,1-1.6,2.4-1.6V5.3
		c0-0.3-0.1-0.8-0.8-0.8c-0.4,0-0.8,0.1-1.1,0.3L8.9,4.1c0.3-0.2,0.8-0.4,1.5-0.4c1.3,0,1.7,0.9,1.7,1.8v1.6c0,0.4,0,0.8,0.1,1
		L11.2,8.2L11.2,8.2z M11.1,6c-0.7,0-1.4,0.1-1.4,0.8c0,0.4,0.3,0.6,0.6,0.6c0.4,0,0.7-0.2,0.8-0.6c0-0.1,0-0.2,0-0.2S11.1,6,11.1,6
		z"/>
	<path class="st0" d="M13,5.2c0-0.5,0-1,0-1.4h0.9v0.8l0,0C14.1,4,14.6,3.7,15,3.7c0.1,0,0.2,0,0.2,0v1c-0.1,0-0.2,0-0.3,0
		c-0.5,0-0.8,0.3-0.9,0.8c0,0.1,0,0.2,0,0.4v2.3h-1V5.2z"/>
	<path class="st0" d="M16.5,6.3c0,0.8,0.6,1.2,1.2,1.2c0.5,0,0.8-0.1,1.1-0.2L19,8c-0.3,0.1-0.8,0.3-1.4,0.3c-1.3,0-2.1-0.9-2.1-2.2
		s0.7-2.3,2-2.3s1.7,1.1,1.7,2.1c0,0.2,0,0.4,0,0.5h-2.7V6.3z M18.2,5.6c0-0.5-0.2-1.1-0.8-1.1c-0.6,0-0.9,0.6-0.9,1.1H18.2z"/>
	<path class="st0" d="M19.9,1.9H21v2.5l0,0c0.1-0.2,0.3-0.3,0.5-0.5c0.2-0.1,0.4-0.2,0.7-0.2c0.7,0,1.4,0.5,1.4,1.8v2.6h-1.1V5.7
		c0-0.6-0.2-1.1-0.7-1.1c-0.4,0-0.7,0.3-0.8,0.6c0,0.1,0,0.2,0,0.3v2.7h-1.1V1.9z"/>
	<path class="st0" d="M28.3,6c0,1.7-1.1,2.3-2,2.3c-1.1,0-2-0.8-2-2.3s0.9-2.3,2.1-2.3C27.5,3.7,28.3,4.6,28.3,6z M25.3,6
		c0,0.8,0.3,1.5,1,1.5c0.6,0,0.9-0.7,0.9-1.5c0-0.7-0.2-1.5-0.9-1.5C25.5,4.5,25.3,5.3,25.3,6z"/>
	<path class="st0" d="M28.9,1.9H30v6.3h-1.1V1.9z"/>
	<path class="st0" d="M34.6,1.9V7c0,0.4,0,0.9,0,1.2h-0.9l-0.1-0.6l0,0C33.4,8,33,8.3,32.4,8.3c-1,0-1.7-0.9-1.7-2.2
		c0-1.5,0.8-2.3,1.8-2.3c0.5,0,0.9,0.2,1.1,0.5l0,0V1.9H34.6z M33.6,5.6c0-0.1,0-0.2,0-0.3c-0.1-0.4-0.4-0.7-0.8-0.7
		c-0.6,0-1,0.6-1,1.5c0,0.8,0.3,1.4,1,1.4c0.4,0,0.7-0.2,0.8-0.7c0-0.1,0-0.2,0-0.3V5.6z"/>
	<path class="st0" d="M36.4,6.3c0,0.8,0.6,1.2,1.2,1.2c0.5,0,0.8-0.1,1.1-0.2L38.8,8c-0.3,0.1-0.8,0.3-1.4,0.3
		c-1.3,0-2.1-0.9-2.1-2.2s0.7-2.3,2-2.3S39,4.9,39,5.9c0,0.2,0,0.4,0,0.5h-2.6V6.3z M38.1,5.6c0-0.5-0.2-1.1-0.8-1.1
		s-0.9,0.6-0.9,1.1H38.1z"/>
	<path class="st0" d="M42.4,7.2c0.2,0.1,0.6,0.3,1,0.3s0.7-0.2,0.7-0.5s-0.2-0.5-0.7-0.7C42.6,6,42.3,5.5,42.3,5
		c0-0.8,0.6-1.4,1.6-1.4c0.4,0,0.8,0.1,1.1,0.2l-0.2,0.8c-0.2-0.1-0.5-0.2-0.8-0.2c-0.4,0-0.6,0.2-0.6,0.5s0.2,0.4,0.7,0.6
		c0.7,0.3,1.1,0.7,1.1,1.3c0,0.8-0.6,1.4-1.7,1.4c-0.5,0-0.9-0.1-1.2-0.3L42.4,7.2z"/>
	<path class="st1" d="M52.9,6c0,1.7-1.1,2.3-2,2.3c-1.1,0-2-0.8-2-2.3s0.9-2.3,2.1-2.3C52.2,3.7,52.9,4.6,52.9,6z M50,6
		c0,0.8,0.3,1.5,1,1.5c0.5,0,0.9-0.7,0.9-1.5c0-0.7-0.2-1.5-0.9-1.5C50.2,4.5,50,5.3,50,6z"/>
	<path class="st2" d="M56.1,6.6c0.5,0.3,1.2,0.5,2,0.5c0.9,0,1.5-0.4,1.5-1.1c0-0.6-0.4-1-1.4-1.3c-1.4-0.5-2.3-1.2-2.3-2.4
		C55.8,1,57.1,0,58.8,0c0.9,0,1.5,0.2,1.9,0.4l-0.4,1.2c-0.3-0.2-0.9-0.4-1.6-0.4c-0.9,0-1.3,0.5-1.3,1c0,0.6,0.5,0.9,1.5,1.3
		C60.3,4,61,4.7,61,5.9c0,1.3-1,2.4-3.1,2.4c-0.9,0-1.7-0.2-2.2-0.5L56.1,6.6z"/>
	<path class="st2" d="M63.8,8.2l-2.6-8.1h1.6l1.1,3.7c0.3,1,0.6,2,0.8,2.9l0,0c0.2-1,0.5-1.9,0.8-2.9l1.2-3.7h1.6l-2.8,8.1H63.8z"/>
	<path class="st2" d="M69.3,5.9l-0.7,2.3h-1.5l2.6-8.1h1.9l2.6,8.1h-1.6l-0.8-2.3H69.3z M71.7,4.8l-0.6-2c-0.2-0.5-0.3-1.1-0.4-1.5
		l0,0c-0.1,0.5-0.2,1-0.4,1.5l-0.6,2H71.7z"/>
</g>
<path class="st1" d="M45.5,1.9h3.3v0.9h-2.2v1.8h2.1v0.9h-2.1v2.7h-1.1V1.9z"/>
<path class="st0" d="M39.7,5.2c0-0.5,0-1,0-1.4h0.9v0.8l0,0c0.2-0.6,0.7-0.9,1.1-0.9c0.1,0,0.2,0,0.2,0v1c-0.1,0-0.2,0-0.3,0
	c-0.5,0-0.8,0.3-0.9,0.8c0,0.1,0,0.2,0,0.4v2.3h-1V5.2z"/>
<path class="st1" d="M53.5,5.2c0-0.5,0-1,0-1.4h0.9v0.8l0,0c0.2-0.6,0.7-0.9,1.1-0.9c0.1,0,0.2,0,0.2,0v1c-0.1,0-0.2,0-0.3,0
	c-0.5,0-0.8,0.3-0.9,0.8c0,0.1,0,0.2,0,0.4v2.3h-1V5.2z"/>
</svg>
