<svg version="1.1" id="Layer_1" xmlns="http://www.w3.org/2000/svg" xmlns:xlink="http://www.w3.org/1999/xlink" x="0px" y="0px"
	 viewBox="0 0 73.4 8.3" style="enable-background:new 0 0 73.4 8.3;" xml:space="preserve">
<g>
	<path class="st0" d="M0.2,7.1C0.5,7.2,1,7.4,1.5,7.4c0.7,0,1-0.3,1-0.8c0-0.5-0.3-0.7-1-1C0.7,5.2,0.1,4.6,0.1,3.8
		c0-1,0.8-1.7,2-1.7c0.6,0,1,0.1,1.3,0.3L3.2,3.2C3,3.1,2.6,2.9,2.1,2.9c-0.7,0-0.9,0.4-0.9,0.7c0,0.5,0.3,0.7,1.1,1
		c1,0.4,1.4,1,1.4,1.8c0,1-0.7,1.8-2.2,1.8C0.9,8.3,0.3,8.1,0,7.9L0.2,7.1z"/>
	<path class="st0" d="M4.3,1.9h1.1v2.5h0C5.5,4.2,5.7,4,5.9,3.9c0.2-0.1,0.4-0.2,0.7-0.2C7.4,3.7,8,4.3,8,5.6v2.6H7V5.7
		c0-0.6-0.2-1.1-0.7-1.1c-0.4,0-0.7,0.3-0.8,0.6c0,0.1,0,0.2,0,0.3v2.7H4.3V1.9z"/>
	<path class="st0" d="M11.2,8.2l-0.1-0.5h0c-0.3,0.3-0.7,0.6-1.2,0.6C9.1,8.3,8.6,7.7,8.6,7c0-1.1,1-1.6,2.4-1.6V5.3
		c0-0.3-0.1-0.8-0.8-0.8c-0.4,0-0.8,0.1-1.1,0.3L8.9,4.1c0.3-0.2,0.8-0.4,1.5-0.4c1.3,0,1.7,0.9,1.7,1.8v1.6c0,0.4,0,0.8,0.1,1H11.2
		z M11.1,6c-0.7,0-1.4,0.1-1.4,0.8c0,0.4,0.3,0.6,0.6,0.6c0.4,0,0.7-0.2,0.8-0.6c0-0.1,0-0.2,0-0.2V6z"/>
	<path class="st0" d="M13,5.2c0-0.5,0-1,0-1.4h0.9l0,0.8h0c0.2-0.6,0.7-0.9,1.1-0.9c0.1,0,0.2,0,0.2,0v1c-0.1,0-0.2,0-0.3,0
		c-0.5,0-0.8,0.3-0.9,0.8c0,0.1,0,0.2,0,0.4v2.3H13V5.2z"/>
	<path class="st0" d="M16.5,6.3c0,0.8,0.6,1.2,1.2,1.2c0.5,0,0.8-0.1,1.1-0.2L19,8c-0.3,0.1-0.8,0.3-1.4,0.3c-1.3,0-2.1-0.9-2.1-2.2
		c0-1.3,0.7-2.3,2-2.3c1.3,0,1.7,1.1,1.7,2.1c0,0.2,0,0.4,0,0.5H16.5z M18.2,5.6c0-0.5-0.2-1.1-0.8-1.1c-0.6,0-0.9,0.6-0.9,1.1H18.2
		z"/>
	<path class="st0" d="M19.9,1.9h1.1v2.5h0c0.1-0.2,0.3-0.3,0.5-0.5c0.2-0.1,0.4-0.2,0.7-0.2c0.7,0,1.4,0.5,1.4,1.8v2.6h-1.1V5.7
		c0-0.6-0.2-1.1-0.7-1.1c-0.4,0-0.7,0.3-0.8,0.6c0,0.1,0,0.2,0,0.3v2.7h-1.1V1.9z"/>
	<path class="st0" d="M28.3,6c0,1.7-1.1,2.3-2,2.3c-1.1,0-2-0.8-2-2.3c0-1.5,0.9-2.3,2.1-2.3C27.5,3.7,28.3,4.6,28.3,6z M25.3,6
		c0,0.8,0.3,1.5,1,1.5c0.6,0,0.9-0.7,0.9-1.5c0-0.7-0.2-1.5-0.9-1.5C25.5,4.5,25.3,5.3,25.3,6z"/>
	<path class="st0" d="M28.9,1.9H30v6.3h-1.1V1.9z"/>
	<path class="st0" d="M34.6,1.9V7c0,0.4,0,0.9,0,1.2h-0.9l-0.1-0.6h0C33.4,8,33,8.3,32.4,8.3c-1,0-1.7-0.9-1.7-2.2
		c0-1.5,0.8-2.3,1.8-2.3c0.5,0,0.9,0.2,1.1,0.5h0V1.9H34.6z M33.6,5.6c0-0.1,0-0.2,0-0.3c-0.1-0.4-0.4-0.7-0.8-0.7
		c-0.6,0-1,0.6-1,1.5c0,0.8,0.3,1.4,1,1.4c0.4,0,0.7-0.2,0.8-0.7c0-0.1,0-0.2,0-0.3V5.6z"/>
	<path class="st0" d="M36.4,6.3c0,0.8,0.6,1.2,1.2,1.2c0.5,0,0.8-0.1,1.1-0.2L38.8,8c-0.3,0.1-0.8,0.3-1.4,0.3
		c-1.3,0-2.1-0.9-2.1-2.2c0-1.3,0.7-2.3,2-2.3c1.3,0,1.7,1.1,1.7,2.1c0,0.2,0,0.4,0,0.5H36.4z M38.1,5.6c0-0.5-0.2-1.1-0.8-1.1
		c-0.6,0-0.9,0.6-0.9,1.1H38.1z"/>
	<path class="st0" d="M39.7,5.2c0-0.5,0-1,0-1.4h0.9l0,0.8h0c0.2-0.6,0.7-0.9,1.1-0.9c0.1,0,0.2,0,0.2,0v1c-0.1,0-0.2,0-0.3,0
		c-0.5,0-0.8,0.3-0.9,0.8c0,0.1,0,0.2,0,0.4v2.3h-1.1V5.2z"/>
	<path class="st0" d="M42.4,7.2c0.2,0.1,0.6,0.3,1,0.3c0.4,0,0.7-0.2,0.7-0.5c0-0.3-0.2-0.5-0.7-0.7c-0.8-0.3-1.1-0.8-1.1-1.3
		c0-0.8,0.6-1.4,1.6-1.4c0.4,0,0.8,0.1,1.1,0.2l-0.2,0.8c-0.2-0.1-0.5-0.2-0.8-0.2c-0.4,0-0.6,0.2-0.6,0.5c0,0.3,0.2,0.4,0.7,0.6
		c0.7,0.3,1.1,0.7,1.1,1.3c0,0.8-0.6,1.4-1.7,1.4c-0.5,0-0.9-0.1-1.2-0.3L42.4,7.2z"/>
	<path class="st1" d="M45.9,8.2V4.6h-0.6V3.8h0.6V3.6c0-0.5,0.1-1.1,0.5-1.4c0.3-0.3,0.7-0.4,1.1-0.4c0.3,0,0.5,0,0.7,0.1l-0.1,0.8
		c-0.1,0-0.3-0.1-0.4-0.1c-0.5,0-0.7,0.5-0.7,1v0.2h0.9v0.8H47v3.6H45.9z"/>
	<path class="st1" d="M52,6c0,1.7-1.1,2.3-2,2.3c-1.1,0-2-0.8-2-2.3c0-1.5,0.9-2.3,2.1-2.3C51.2,3.7,52,4.6,52,6z M49.1,6
		c0,0.8,0.3,1.5,1,1.5C50.6,7.5,51,6.8,51,6c0-0.7-0.2-1.5-0.9-1.5C49.3,4.5,49.1,5.3,49.1,6z"/>
	<path class="st1" d="M52.7,5.2c0-0.5,0-1,0-1.4h0.9l0,0.8h0c0.2-0.6,0.7-0.9,1.1-0.9c0.1,0,0.2,0,0.2,0v1c-0.1,0-0.2,0-0.3,0
		c-0.5,0-0.8,0.3-0.9,0.8c0,0.1,0,0.2,0,0.4v2.3h-1.1V5.2z"/>
	<path class="st2" d="M55.2,6.6c0.5,0.3,1.2,0.5,2,0.5c0.9,0,1.5-0.4,1.5-1.1c0-0.6-0.4-1-1.4-1.3C55.9,4.2,55,3.5,55,2.3
		C55,1,56.2,0,57.9,0c0.9,0,1.5,0.2,1.9,0.4l-0.4,1.2c-0.3-0.2-0.9-0.4-1.6-0.4c-0.9,0-1.3,0.5-1.3,1c0,0.6,0.5,0.9,1.5,1.3
		c1.4,0.5,2.1,1.2,2.1,2.4c0,1.3-1,2.4-3.1,2.4c-0.9,0-1.7-0.2-2.2-0.5L55.2,6.6z"/>
	<path class="st2" d="M62.9,8.2l-2.6-8.1h1.6L63,3.8c0.3,1,0.6,2,0.8,2.9h0c0.2-1,0.5-1.9,0.8-2.9l1.2-3.7h1.6l-2.8,8.1H62.9z"/>
	<path class="st2" d="M68.5,5.9l-0.7,2.3h-1.5l2.6-8.1h1.9l2.6,8.1h-1.6L71,5.9H68.5z M70.8,4.8l-0.6-2c-0.2-0.5-0.3-1.1-0.4-1.5h0
		c-0.1,0.5-0.2,1-0.4,1.5l-0.6,2H70.8z"/>
</g>
</svg>
