<svg version="1.1" id="Layer_1" xmlns="http://www.w3.org/2000/svg" xmlns:xlink="http://www.w3.org/1999/xlink" x="0px" y="0px"
	 viewBox="0 0 461.9 344.9" style="enable-background:new 0 0 461.9 344.9;" xml:space="preserve">
<style type="text/css">
	
		.st0{clip-path:url(#SVGID_00000168114717488522394660000011981260523275063189_);fill:url(#SVGID_00000150801446243534871170000002651726837193478059_);}
	
		.st1{clip-path:url(#SVGID_00000075152928127652914210000006978262823871572888_);fill:url(#SVGID_00000049201884145414111870000002899951227131060141_);}
	
		.st2{clip-path:url(#SVGID_00000047748402057297952860000010938532494394134683_);fill:url(#SVGID_00000114058393136003716340000001351925227006267052_);}
	
		.st3{clip-path:url(#SVGID_00000126302777442854485340000001510610526719231131_);fill:url(#SVGID_00000080202866323466840730000008167315765078442911_);}
	
		.st4{clip-path:url(#SVGID_00000089561781125812594100000005679714911973319553_);fill:url(#SVGID_00000077290954081444954090000006231126801675278772_);}
	
		.st5{clip-path:url(#SVGID_00000089536820914418516780000017223420047491963528_);fill:url(#SVGID_00000033326705263744384710000008463996231181910926_);}
	
		.st6{clip-path:url(#SVGID_00000088134829617771056410000015041645430501617570_);fill:url(#SVGID_00000176765752073504537050000000616054792129078411_);}
	
		.st7{clip-path:url(#SVGID_00000037658973988915068210000004012392137177151661_);fill:url(#SVGID_00000176030058181151126370000004841866804144751519_);}
	
		.st8{clip-path:url(#SVGID_00000139999399467025286710000001247847622774954683_);fill:url(#SVGID_00000116956952776909165020000001661666551618458551_);}
	
		.st9{clip-path:url(#SVGID_00000032628954982034001010000011073566335893385614_);fill:url(#SVGID_00000094581014091340505060000007341218390845660558_);}
	
		.st10{clip-path:url(#SVGID_00000068667584416059210400000008820611133140383877_);fill:url(#SVGID_00000073700766753550375440000002396662728728006561_);}
	
		.st11{clip-path:url(#SVGID_00000043414838129443782800000011943896800051660991_);fill:url(#SVGID_00000017474910408423056070000010780101327365420982_);}
	
		.st12{clip-path:url(#SVGID_00000147926938339965444540000002736538531663455408_);fill:url(#SVGID_00000011709547590235795050000000146905322225898667_);}
	
		.st13{clip-path:url(#SVGID_00000128469599426185732520000016190432984538549691_);fill:url(#SVGID_00000173863053377890916660000000489027005163833267_);}
	
		.st14{clip-path:url(#SVGID_00000154427041961152253570000014455276393143529875_);fill:url(#SVGID_00000178909817483119169010000002926503735131482021_);}
</style>
<g>
	<g>
		<defs>
			<path id="SVGID_1_" d="M15.6,250.8c3.2,1.6,6.8,2.1,10.5,2.1c4.3,0,8.5-0.9,11.9-3.3c5.4-3.9,6.7-9.8,6.7-13
				c0-6.3-2.2-11.1-11.5-18.4l-2.2-1.7c-7.5-5.9-9.6-8.7-9.6-13.2c0-5.7,4.2-9.1,9.7-9.1c7.2,0,9.3,3.3,9.8,4.2c0.5,0.9,1,3,1,3.9
				c0.1,0.6,0.2,1,0.6,1c0.4,0,0.6-0.5,0.6-1.8c0-5.3,0.3-7.9,0.3-8.3c0-0.4-0.2-0.5-0.8-0.5c-0.6,0-1.2-0.1-2.7-0.4
				c-2-0.5-4.2-0.8-7.3-0.8c-10,0-16.3,5.7-16.3,14.1c0,5.3,1.9,10.2,10.2,17l3.5,2.9c6.8,5.6,9,8.7,9,14.1c0,5-3.7,10.4-11.2,10.4
				c-5.2,0-10.4-2.2-11.6-8c-0.3-1.1-0.3-2.2-0.3-2.9c0-0.6-0.1-0.9-0.5-0.9c-0.4,0-0.5,0.4-0.6,1.3c-0.1,1.3-0.4,4.4-0.4,8.3
				C14.5,250,14.5,250.3,15.6,250.8z"/>
		</defs>
		<clipPath id="SVGID_00000028297520716770725630000013230947848803419565_">
			<use xlink:href="#SVGID_1_"  style="overflow:visible;"/>
		</clipPath>
		
			<linearGradient id="SVGID_00000128482394469027587350000004668101598731818674_" gradientUnits="userSpaceOnUse" x1="48.3562" y1="243.1603" x2="45.0254" y2="237.3913" gradientTransform="matrix(0 -86.748 -86.748 0 21084.0645 4231.6494)">
			<stop  offset="0" style="stop-color:#54565A"/>
			<stop  offset="0.35" style="stop-color:#949598"/>
			<stop  offset="0.5" style="stop-color:#A4A5A8"/>
			<stop  offset="0.6121" style="stop-color:#999A9D"/>
			<stop  offset="0.65" style="stop-color:#949598"/>
			<stop  offset="0.9699" style="stop-color:#595B60"/>
			<stop  offset="1" style="stop-color:#54565A"/>
		</linearGradient>
		
			<rect x="-15.8" y="-16.2" style="clip-path:url(#SVGID_00000028297520716770725630000013230947848803419565_);fill:url(#SVGID_00000128482394469027587350000004668101598731818674_);" width="485.2" height="379"/>
	</g>
	<g>
		<defs>
			<path id="SVGID_00000134240884560658732200000008696386441227368118_" d="M110.4,250.8c-0.7,0-2.5-0.2-3.6-0.3
				c-2.3-0.3-2.8-2.1-3.1-4.3c-0.4-3.3-0.4-9.5-0.4-17v-13.8c0-12.2,0-14.4,0.2-16.9c0.1-2.8,0.8-4.1,2.9-4.5
				c0.9-0.2,1.4-0.2,1.9-0.2c0.3,0,0.6-0.2,0.6-0.5c0-0.5-0.4-0.6-1.3-0.6c-2.4,0-7.3,0.3-7.7,0.3c-0.4,0-5.3-0.3-7.9-0.3
				c-0.9,0-1.3,0.2-1.3,0.6c0,0.3,0.3,0.5,0.6,0.5c0.6,0,1.6,0.1,2.4,0.3c1.7,0.4,2.5,1.7,2.7,4.4c0.1,2.5,0.1,4.7,0.1,16.9v13.8
				c0,7.5,0,13.7-0.4,17c-0.3,2.3-0.7,4-2.3,4.3c-0.7,0.1-1.7,0.3-2.3,0.3c-0.5,0-0.6,0.2-0.6,0.5c0,0.5,0.4,0.6,1.3,0.6
				c2.3,0,7.3-0.2,7.7-0.2c0.4,0,5.3,0.2,9.7,0.2c0.9,0,1.2-0.2,1.2-0.6C111,251,110.8,250.8,110.4,250.8z"/>
		</defs>
		<clipPath id="SVGID_00000165921776543041811250000001828303886706197900_">
			<use xlink:href="#SVGID_00000134240884560658732200000008696386441227368118_"  style="overflow:visible;"/>
		</clipPath>
		
			<linearGradient id="SVGID_00000030457475165603980380000009326532742641292963_" gradientUnits="userSpaceOnUse" x1="48.3562" y1="243.1603" x2="45.0254" y2="237.3913" gradientTransform="matrix(0 -86.748 -86.748 0 21084.0645 4231.6494)">
			<stop  offset="0" style="stop-color:#54565A"/>
			<stop  offset="0.35" style="stop-color:#949598"/>
			<stop  offset="0.5" style="stop-color:#A4A5A8"/>
			<stop  offset="0.6121" style="stop-color:#999A9D"/>
			<stop  offset="0.65" style="stop-color:#949598"/>
			<stop  offset="0.9699" style="stop-color:#595B60"/>
			<stop  offset="1" style="stop-color:#54565A"/>
		</linearGradient>
		
			<rect x="-15.8" y="-16.2" style="clip-path:url(#SVGID_00000165921776543041811250000001828303886706197900_);fill:url(#SVGID_00000030457475165603980380000009326532742641292963_);" width="485.2" height="379"/>
	</g>
	<g>
		<defs>
			<path id="SVGID_00000051349097884623471140000013203105181205418385_" d="M189.6,250.1c0.4-1.7,1-7,1-7.6c0-0.6,0-1.2-0.5-1.2
				c-0.4,0-0.6,0.3-0.7,1.2c-0.5,3.2-1.5,4.8-3.5,5.6c-2,0.9-5.5,0.9-7.5,0.9c-7.7,0-8.9-1-9.1-6.4c-0.1-1.6,0-10.8,0-13.4v-6.9
				c0-0.3,0.2-0.5,0.6-0.5c1.3,0,9.1,0.2,11.2,0.4c3,0.3,3.7,1.7,4.1,2.8c0.3,1,0.3,1.8,0.3,2.6c0,0.4,0.2,0.7,0.5,0.7
				c0.5,0,0.5-0.9,0.5-1.5c0-0.5,0.1-3.5,0.3-5c0.3-2.6,0.6-3.9,0.6-4.4c0-0.4-0.2-0.6-0.4-0.6c-0.3,0-0.6,0.4-1.2,1
				c-0.7,0.8-1.8,0.9-3.7,1.1c-1.8,0.2-11.5,0.2-12.5,0.2c-0.4,0-0.5-0.2-0.5-0.8v-21.7c0-0.5,0.2-0.8,0.5-0.8
				c0.9,0,9.4,0.1,10.7,0.2c4.2,0.5,5,1.4,5.6,2.7c0.4,0.9,0.5,2.3,0.5,2.8c0,0.6,0.1,1,0.6,1c0.3,0,0.5-0.5,0.5-0.9
				c0.2-0.9,0.3-4.4,0.4-5.2c0.2-2.2,0.6-3.1,0.6-3.7c0-0.4-0.1-0.7-0.3-0.7c-0.4,0-0.7,0.3-1.1,0.4c-0.7,0.2-1.9,0.3-3.4,0.4
				c-1.8,0.1-17.4,0.1-18,0.1l-3.2-0.1c-1.7-0.1-3.8-0.1-5.7-0.1c-0.8,0-1.2,0.2-1.2,0.6c0,0.3,0.3,0.5,0.6,0.5c0.7,0,2,0.1,2.7,0.2
				c2.6,0.6,3.2,1.8,3.4,4.5c0.1,2.5,0.1,4.7,0.1,16.9v13.8c0,7.5,0,13.7-0.4,17c-0.3,2.3-0.7,4-2.3,4.3c-0.7,0.1-1.7,0.3-2.4,0.3
				c-0.5,0-0.6,0.3-0.6,0.5c0,0.5,0.4,0.6,1.3,0.6c1.2,0,3-0.2,4.6-0.2c1.6-0.1,3-0.1,3.1-0.1c1.2,0,3.1,0.1,6.1,0.2
				c3.1,0,7.4,0.2,13.3,0.2C188.4,252.1,189.1,252.1,189.6,250.1z"/>
		</defs>
		<clipPath id="SVGID_00000005227269094716459080000004290514823372214668_">
			<use xlink:href="#SVGID_00000051349097884623471140000013203105181205418385_"  style="overflow:visible;"/>
		</clipPath>
		
			<linearGradient id="SVGID_00000093141252231682817960000007743753996039673003_" gradientUnits="userSpaceOnUse" x1="48.3562" y1="243.1603" x2="45.0254" y2="237.3913" gradientTransform="matrix(0 -86.748 -86.748 0 21084.0645 4231.6494)">
			<stop  offset="0" style="stop-color:#54565A"/>
			<stop  offset="0.35" style="stop-color:#949598"/>
			<stop  offset="0.5" style="stop-color:#A4A5A8"/>
			<stop  offset="0.6121" style="stop-color:#999A9D"/>
			<stop  offset="0.65" style="stop-color:#949598"/>
			<stop  offset="0.9699" style="stop-color:#595B60"/>
			<stop  offset="1" style="stop-color:#54565A"/>
		</linearGradient>
		
			<rect x="-15.8" y="-16.2" style="clip-path:url(#SVGID_00000005227269094716459080000004290514823372214668_);fill:url(#SVGID_00000093141252231682817960000007743753996039673003_);" width="485.2" height="379"/>
	</g>
	<g>
		<defs>
			<path id="SVGID_00000044145221336757752830000008213812914788261563_" d="M255.2,250.7c-0.7,0-2.4-0.1-3.5-0.3
				c-2.4-0.3-2.8-2.1-3.1-4.3c-0.4-3.3-0.4-9.5-0.4-17v-1.9c0-0.4,0.2-0.6,0.6-0.6l9.7,0.2c0.5,0,0.7,0.2,1,0.5
				c1.6,2.1,5.2,7.3,8.5,11.6c4.5,5.9,7.2,9.7,10.6,11.5c2,1.1,4,1.5,8.4,1.5h5.6c1.4,0,1.9-0.2,1.9-0.6c0-0.2-0.3-0.5-0.7-0.5
				c-0.5,0-1.6,0-3-0.2c-2-0.3-5.3-1.2-9.6-5.7c-4.5-4.8-9.9-11.8-16.3-20.1c7.1-6.5,9.5-12.3,9.5-18.1c0-5.4-3.5-9.2-5.4-10.7
				c-4.2-3-9.4-3.5-14.3-3.5c-2.5,0-8.4,0.3-9.3,0.3c-0.4,0-5.3-0.3-8.9-0.3c-0.9,0-1.2,0.2-1.2,0.6c0,0.3,0.3,0.5,0.6,0.5
				c0.7,0,2,0.1,2.7,0.2c2.6,0.6,3.2,1.8,3.4,4.5c0.1,2.5,0.1,4.7,0.1,16.9v13.8c0,7.5,0,13.7-0.4,17c-0.3,2.3-0.7,4-2.3,4.3
				c-0.7,0.1-1.7,0.3-2.4,0.3c-0.5,0-0.6,0.3-0.6,0.5c0,0.5,0.4,0.6,1.2,0.6c2.4,0,7.3-0.2,7.4-0.2c0.4,0,5.3,0.2,9.6,0.2
				c0.9,0,1.3-0.2,1.3-0.6C255.9,251,255.7,250.7,255.2,250.7z M248.2,196.4c0-0.5,0.2-0.8,0.6-0.9c0.8-0.2,2.9-0.5,5.3-0.5
				c8.4,0,13.6,5.9,13.6,15.7c0,6-2,10.2-4.8,12.1c-1.8,1.2-4,1.5-5.9,1.5c-3.4,0-7-0.6-8.2-1.3c-0.4-0.2-0.6-0.5-0.6-0.9V196.4z"/>
		</defs>
		<clipPath id="SVGID_00000156581942308420217150000006492469000844808376_">
			<use xlink:href="#SVGID_00000044145221336757752830000008213812914788261563_"  style="overflow:visible;"/>
		</clipPath>
		
			<linearGradient id="SVGID_00000107569616447429883020000005385139319889802644_" gradientUnits="userSpaceOnUse" x1="48.3562" y1="243.1603" x2="45.0254" y2="237.3913" gradientTransform="matrix(0 -86.748 -86.748 0 21084.0645 4231.6494)">
			<stop  offset="0" style="stop-color:#54565A"/>
			<stop  offset="0.35" style="stop-color:#949598"/>
			<stop  offset="0.5" style="stop-color:#A4A5A8"/>
			<stop  offset="0.6121" style="stop-color:#999A9D"/>
			<stop  offset="0.65" style="stop-color:#949598"/>
			<stop  offset="0.9699" style="stop-color:#595B60"/>
			<stop  offset="1" style="stop-color:#54565A"/>
		</linearGradient>
		
			<rect x="-15.8" y="-16.2" style="clip-path:url(#SVGID_00000156581942308420217150000006492469000844808376_);fill:url(#SVGID_00000107569616447429883020000005385139319889802644_);" width="485.2" height="379"/>
	</g>
	<g>
		<defs>
			<path id="SVGID_00000128464417046104832920000005407999162207675312_" d="M361.3,250.4c2.1,1.1,4,1.5,8.4,1.5h5.6
				c1.4,0,1.9-0.2,1.9-0.6c0-0.2-0.3-0.5-0.7-0.5c-0.5,0-1.6,0-3.1-0.2c-2-0.3-5.3-1.2-9.6-5.7c-4.5-4.8-9.9-11.8-16.3-20.1
				c7.1-6.5,9.5-12.3,9.5-18.1c0-5.4-3.4-9.2-5.4-10.7c-4.2-3-9.4-3.5-14.4-3.5c-2.4,0-8.4,0.3-9.3,0.3c-0.4,0-5.3-0.3-8.9-0.3
				c-0.9,0-1.3,0.2-1.3,0.6c0,0.3,0.3,0.5,0.6,0.5c0.7,0,2,0.1,2.7,0.2c2.6,0.6,3.2,1.8,3.4,4.5c0.2,2.5,0.2,4.7,0.2,16.9v13.8
				c0,7.5,0,13.7-0.4,17c-0.3,2.3-0.7,4-2.3,4.3c-0.7,0.1-1.6,0.3-2.4,0.3c-0.5,0-0.6,0.3-0.6,0.5c0,0.5,0.4,0.6,1.3,0.6
				c2.4,0,7.3-0.2,7.4-0.2c0.4,0,5.3,0.2,9.7,0.2c0.9,0,1.2-0.2,1.2-0.6c0-0.2-0.1-0.5-0.6-0.5c-0.7,0-2.4-0.1-3.5-0.3
				c-2.3-0.3-2.8-2.1-3.1-4.3c-0.4-3.3-0.4-9.5-0.4-17v-1.9c0-0.4,0.2-0.6,0.6-0.6l9.7,0.2c0.4,0,0.7,0.2,1,0.5
				c1.6,2.1,5.2,7.3,8.5,11.6C355.2,244.7,357.9,248.6,361.3,250.4z M345.6,222.8c-1.8,1.2-4,1.5-5.9,1.5c-3.4,0-7.1-0.6-8.2-1.3
				c-0.4-0.2-0.6-0.5-0.6-0.9v-25.7c0-0.5,0.2-0.8,0.6-0.9c0.8-0.2,2.9-0.5,5.3-0.5c8.4,0,13.6,5.9,13.6,15.7
				C350.4,216.7,348.4,220.9,345.6,222.8z"/>
		</defs>
		<clipPath id="SVGID_00000114755225412226567140000012234681966679355526_">
			<use xlink:href="#SVGID_00000128464417046104832920000005407999162207675312_"  style="overflow:visible;"/>
		</clipPath>
		
			<linearGradient id="SVGID_00000181064391412054918510000004736714297663353525_" gradientUnits="userSpaceOnUse" x1="48.3562" y1="243.1603" x2="45.0254" y2="237.3913" gradientTransform="matrix(0 -86.748 -86.748 0 21084.0645 4231.6494)">
			<stop  offset="0" style="stop-color:#54565A"/>
			<stop  offset="0.35" style="stop-color:#949598"/>
			<stop  offset="0.5" style="stop-color:#A4A5A8"/>
			<stop  offset="0.6121" style="stop-color:#999A9D"/>
			<stop  offset="0.65" style="stop-color:#949598"/>
			<stop  offset="0.9699" style="stop-color:#595B60"/>
			<stop  offset="1" style="stop-color:#54565A"/>
		</linearGradient>
		
			<rect x="-15.8" y="-16.2" style="clip-path:url(#SVGID_00000114755225412226567140000012234681966679355526_);fill:url(#SVGID_00000181064391412054918510000004736714297663353525_);" width="485.2" height="379"/>
	</g>
	<g>
		<defs>
			<path id="SVGID_00000064340274036080515200000018121029094926761638_" d="M450.7,250.8c-0.8,0-2-0.1-3.1-0.5
				c-1.6-0.5-3.9-1.7-6.8-8.7c-4.8-11.9-17.1-44.3-18.3-47.3c-1-2.4-1.3-2.8-1.7-2.8c-0.4,0-0.8,0.5-1.7,3.1l-17.8,48.7
				c-1.4,3.9-3,6.9-6.6,7.4c-0.6,0.1-1.7,0.2-2.3,0.2c-0.4,0-0.7,0.2-0.7,0.5c0,0.5,0.5,0.6,1.5,0.6c3.7,0,8-0.2,8.9-0.2
				c0.9,0,4.2,0.2,6.1,0.2c0.7,0,1.2-0.2,1.2-0.6c0-0.3-0.2-0.5-0.8-0.5h-0.8c-1.3,0-3-0.7-3-2.3c0-1.4,0.4-3.3,1.1-5.3l4.7-13.9
				c0.2-0.4,0.4-0.6,0.8-0.6h16.9c0.4,0,0.6,0.2,0.7,0.5l7.3,19.3c0.5,1.2,0,2-0.5,2.1c-0.3,0.1-0.6,0.2-0.6,0.6
				c0,0.5,0.9,0.5,2.4,0.5c5.4,0.2,11.1,0.2,12.3,0.2c0.9,0,1.6-0.2,1.6-0.6C451.5,250.8,451.2,250.8,450.7,250.8z M427.3,225.9h-15
				c-0.2,0-0.4-0.2-0.2-0.6l6.9-21.2c0.4-1.2,0.8-1.2,1.2,0l7.5,21.2C427.6,225.6,427.6,225.9,427.3,225.9z"/>
		</defs>
		<clipPath id="SVGID_00000046319749314601674120000007103093750177631918_">
			<use xlink:href="#SVGID_00000064340274036080515200000018121029094926761638_"  style="overflow:visible;"/>
		</clipPath>
		
			<linearGradient id="SVGID_00000052801993290460419620000015885772704338083208_" gradientUnits="userSpaceOnUse" x1="48.3562" y1="243.1603" x2="45.0254" y2="237.3913" gradientTransform="matrix(0 -86.748 -86.748 0 21084.0645 4231.6494)">
			<stop  offset="0" style="stop-color:#54565A"/>
			<stop  offset="0.35" style="stop-color:#949598"/>
			<stop  offset="0.5" style="stop-color:#A4A5A8"/>
			<stop  offset="0.6121" style="stop-color:#999A9D"/>
			<stop  offset="0.65" style="stop-color:#949598"/>
			<stop  offset="0.9699" style="stop-color:#595B60"/>
			<stop  offset="1" style="stop-color:#54565A"/>
		</linearGradient>
		
			<rect x="-15.8" y="-16.2" style="clip-path:url(#SVGID_00000046319749314601674120000007103093750177631918_);fill:url(#SVGID_00000052801993290460419620000015885772704338083208_);" width="485.2" height="379"/>
	</g>
	<g>
		<defs>
			<path id="SVGID_00000068677501631067489550000002440126076877934993_" d="M81.9,342.8c-0.7,0-2.6,0-4.7-0.7
				c-3.1-1-3.6-5.1-3.9-7.7l-4.8-44.4c-0.2-1.4-0.4-1.9-0.9-1.9c-0.5,0-0.8,0.5-1.1,1.2l-21.3,45.4l-22.1-45.5
				c-0.4-0.8-0.7-1.1-1.1-1.1c-0.4,0-0.7,0.5-0.8,1.3l-5.2,47.1c-0.3,2.7-0.5,5.6-2.9,6c-1.1,0.2-1.6,0.2-2.2,0.2
				c-0.4,0-0.7,0.1-0.7,0.4c0,0.5,0.5,0.6,1.2,0.6c1.9,0,5.4-0.2,6.1-0.2c0.6,0,4,0.2,6.7,0.2c0.9,0,1.3-0.1,1.3-0.6
				c0-0.2-0.3-0.4-0.6-0.4c-0.4,0-1.5-0.1-2.7-0.4c-1.1-0.2-1.9-1.2-1.9-2.3c0-1.2,0-2.5,0.1-3.7l2.9-33.5h0.3
				c0.8,2,8.9,19.3,9.5,20.6c0.4,0.7,6.6,13.2,8.5,16.8c1.4,2.6,1.7,3.3,2.2,3.3c0.7,0,0.9-0.6,2.4-3.8L64,302.3h0.2l3.5,37.3
				c0.2,1.3,0.1,2.5-0.3,2.6c-0.4,0.1-0.5,0.2-0.5,0.5c0,0.4,0.4,0.6,2,0.7c2.7,0.2,10.5,0.4,12.1,0.4c0.9,0,1.5-0.2,1.5-0.6
				C82.5,342.9,82.3,342.8,81.9,342.8z"/>
		</defs>
		<clipPath id="SVGID_00000091732065363469784320000017092843865396289981_">
			<use xlink:href="#SVGID_00000068677501631067489550000002440126076877934993_"  style="overflow:visible;"/>
		</clipPath>
		
			<linearGradient id="SVGID_00000011744229394358774030000004567981146924405430_" gradientUnits="userSpaceOnUse" x1="48.3562" y1="243.1603" x2="45.0254" y2="237.3913" gradientTransform="matrix(0 -86.748 -86.748 0 21084.0645 4231.6494)">
			<stop  offset="0" style="stop-color:#54565A"/>
			<stop  offset="0.35" style="stop-color:#949598"/>
			<stop  offset="0.5" style="stop-color:#A4A5A8"/>
			<stop  offset="0.6121" style="stop-color:#999A9D"/>
			<stop  offset="0.65" style="stop-color:#949598"/>
			<stop  offset="0.9699" style="stop-color:#595B60"/>
			<stop  offset="1" style="stop-color:#54565A"/>
		</linearGradient>
		
			<rect x="-15.8" y="-16.2" style="clip-path:url(#SVGID_00000091732065363469784320000017092843865396289981_);fill:url(#SVGID_00000011744229394358774030000004567981146924405430_);" width="485.2" height="379"/>
	</g>
	<g>
		<defs>
			<path id="SVGID_00000021815569709853461970000006946628771569659550_" d="M149.7,334.1c-0.3,0-0.5,0.3-0.7,1.1
				c-0.5,3-1.4,4.4-3.2,5.2c-1.9,0.8-5.1,0.8-6.9,0.8c-7.1,0-8.2-0.9-8.4-5.9c-0.1-1.5,0-9.9,0-12.3v-6.4c0-0.3,0.1-0.5,0.5-0.5
				c1.2,0,8.4,0.1,10.3,0.4c2.8,0.3,3.5,1.5,3.8,2.5c0.3,0.9,0.3,1.7,0.3,2.4c0,0.4,0.2,0.6,0.5,0.6c0.5,0,0.5-0.8,0.5-1.4
				c0-0.5,0.1-3.2,0.3-4.6c0.2-2.4,0.6-3.6,0.6-4c0-0.4-0.1-0.6-0.3-0.6c-0.3,0-0.6,0.3-1.1,0.9c-0.7,0.7-1.7,0.9-3.4,1
				c-1.7,0.2-10.6,0.2-11.5,0.2c-0.4,0-0.4-0.2-0.4-0.7v-20c0-0.5,0.1-0.7,0.4-0.7c0.8,0,8.7,0.1,9.9,0.2c3.9,0.4,4.6,1.3,5.1,2.4
				c0.4,0.9,0.4,2.1,0.4,2.6c0,0.6,0.1,0.9,0.6,0.9c0.3,0,0.4-0.4,0.5-0.8c0.1-0.9,0.3-4.1,0.4-4.8c0.2-2,0.6-2.9,0.6-3.4
				c0-0.4-0.1-0.7-0.3-0.7c-0.4,0-0.7,0.3-1,0.3c-0.6,0.1-1.7,0.3-3.1,0.4c-1.7,0.1-16.1,0.1-16.6,0.1l-3-0.1
				c-1.6-0.1-3.5-0.1-5.2-0.1c-0.8,0-1.1,0.2-1.1,0.6c0,0.3,0.3,0.4,0.6,0.4c0.6,0,1.9,0.1,2.4,0.2c2.4,0.5,3,1.6,3.1,4.1
				c0.1,2.3,0.1,4.4,0.1,15.6v12.7c0,6.9,0,12.6-0.4,15.7c-0.3,2.1-0.6,3.7-2.1,4c-0.6,0.1-1.5,0.3-2.2,0.3c-0.4,0-0.6,0.2-0.6,0.4
				c0,0.4,0.4,0.6,1.1,0.6c1.1,0,2.8-0.1,4.2-0.1c1.5-0.1,2.7-0.1,2.9-0.1c1.1,0,2.8,0.1,5.6,0.2c2.8,0.1,6.8,0.2,12.2,0.2
				c2.8,0,3.4,0,3.9-1.9c0.4-1.5,0.9-6.4,0.9-7C150.1,334.7,150.1,334.1,149.7,334.1z"/>
		</defs>
		<clipPath id="SVGID_00000091710091093433824460000012290560712503630252_">
			<use xlink:href="#SVGID_00000021815569709853461970000006946628771569659550_"  style="overflow:visible;"/>
		</clipPath>
		
			<linearGradient id="SVGID_00000031904859793836196590000001932330192550827421_" gradientUnits="userSpaceOnUse" x1="48.3562" y1="243.1603" x2="45.0254" y2="237.3913" gradientTransform="matrix(0 -86.748 -86.748 0 21084.0645 4231.6494)">
			<stop  offset="0" style="stop-color:#54565A"/>
			<stop  offset="0.35" style="stop-color:#949598"/>
			<stop  offset="0.5" style="stop-color:#A4A5A8"/>
			<stop  offset="0.6121" style="stop-color:#999A9D"/>
			<stop  offset="0.65" style="stop-color:#949598"/>
			<stop  offset="0.9699" style="stop-color:#595B60"/>
			<stop  offset="1" style="stop-color:#54565A"/>
		</linearGradient>
		
			<rect x="-15.8" y="-16.2" style="clip-path:url(#SVGID_00000091710091093433824460000012290560712503630252_);fill:url(#SVGID_00000031904859793836196590000001932330192550827421_);" width="485.2" height="379"/>
	</g>
	<g>
		<defs>
			<path id="SVGID_00000028322237539167474430000008532493796243201417_" d="M231.8,288.7c-0.3,0-0.9,0.2-2,0.4
				c-1.2,0.2-2.8,0.4-5.1,0.4h-27.1c-0.9,0-3.6-0.1-5.7-0.4c-2-0.1-2.7-0.9-3.2-0.9c-0.3,0-0.6,0.9-0.7,1.4
				c-0.1,0.6-1.6,6.8-1.6,7.5c0,0.4,0.1,0.6,0.4,0.6c0.3,0,0.5-0.1,0.7-0.7c0.2-0.5,0.4-1,1.2-2.2c1.2-1.7,2.9-2.2,7.4-2.3l10.7-0.1
				v30.6c0,7,0,12.6-0.4,15.7c-0.3,2.1-0.7,3.7-2.1,4c-0.7,0.1-1.5,0.3-2.2,0.3c-0.4,0-0.6,0.2-0.6,0.4c0,0.4,0.4,0.6,1.2,0.6
				c2.2,0,6.7-0.2,7.1-0.2c0.3,0,4.9,0.2,8.9,0.2c0.8,0,1.2-0.2,1.2-0.6c0-0.2-0.1-0.4-0.6-0.4c-0.6,0-2.2-0.2-3.2-0.3
				c-2.2-0.3-2.6-1.9-2.8-4c-0.4-3-0.4-8.7-0.4-15.7v-30.6l9.1,0.1c6.9,0.2,8.7,1.8,8.9,4l0.1,0.8c0,1,0.2,1.2,0.6,1.2
				c0.3,0,0.5-0.3,0.5-1c0-0.8,0.2-5.8,0.2-8C232.1,289.1,232.1,288.7,231.8,288.7z"/>
		</defs>
		<clipPath id="SVGID_00000116933269951390377180000015461818105857886349_">
			<use xlink:href="#SVGID_00000028322237539167474430000008532493796243201417_"  style="overflow:visible;"/>
		</clipPath>
		
			<linearGradient id="SVGID_00000152235794759523743800000005859810087096908469_" gradientUnits="userSpaceOnUse" x1="48.3562" y1="243.1603" x2="45.0254" y2="237.3913" gradientTransform="matrix(0 -86.748 -86.748 0 21084.0645 4231.6494)">
			<stop  offset="0" style="stop-color:#54565A"/>
			<stop  offset="0.35" style="stop-color:#949598"/>
			<stop  offset="0.5" style="stop-color:#A4A5A8"/>
			<stop  offset="0.6121" style="stop-color:#999A9D"/>
			<stop  offset="0.65" style="stop-color:#949598"/>
			<stop  offset="0.9699" style="stop-color:#595B60"/>
			<stop  offset="1" style="stop-color:#54565A"/>
		</linearGradient>
		
			<rect x="-15.8" y="-16.2" style="clip-path:url(#SVGID_00000116933269951390377180000015461818105857886349_);fill:url(#SVGID_00000152235794759523743800000005859810087096908469_);" width="485.2" height="379"/>
	</g>
	<g>
		<defs>
			<path id="SVGID_00000129894945434971328700000004951575301551379885_" d="M312.5,342.8c-0.7,0-1.8-0.1-2.9-0.4
				c-1.5-0.4-3.6-1.6-6.2-8c-4.4-11-15.8-40.8-16.8-43.6c-0.9-2.2-1.2-2.6-1.6-2.6c-0.4,0-0.7,0.4-1.6,2.8L267,335.9
				c-1.3,3.6-2.7,6.4-6.1,6.8c-0.6,0.1-1.6,0.2-2.1,0.2c-0.4,0-0.6,0.1-0.6,0.4c0,0.4,0.4,0.6,1.4,0.6c3.4,0,7.4-0.2,8.2-0.2
				c0.8,0,3.9,0.2,5.6,0.2c0.6,0,1.1-0.1,1.1-0.6c0-0.3-0.2-0.4-0.7-0.4H273c-1.2,0-2.7-0.6-2.7-2.1c0-1.3,0.4-3,1-4.9l4.3-12.8
				c0.1-0.4,0.4-0.6,0.7-0.6h15.5c0.4,0,0.5,0.2,0.7,0.4l6.7,17.8c0.4,1.2,0,1.8-0.4,1.9c-0.3,0.1-0.5,0.2-0.5,0.5
				c0,0.4,0.8,0.4,2.2,0.5c5,0.1,10.3,0.1,11.3,0.1c0.8,0,1.5-0.1,1.5-0.6C313.3,342.9,313,342.8,312.5,342.8z M290.9,319.9h-13.8
				c-0.2,0-0.4-0.2-0.2-0.5l6.4-19.5c0.3-1.1,0.7-1.1,1.1,0l6.9,19.5C291.3,319.7,291.3,319.9,290.9,319.9z"/>
		</defs>
		<clipPath id="SVGID_00000104694038579406666880000012964240143116328598_">
			<use xlink:href="#SVGID_00000129894945434971328700000004951575301551379885_"  style="overflow:visible;"/>
		</clipPath>
		
			<linearGradient id="SVGID_00000083789073779227768750000010065485287151973039_" gradientUnits="userSpaceOnUse" x1="48.3562" y1="243.1603" x2="45.0254" y2="237.3913" gradientTransform="matrix(0 -86.748 -86.748 0 21084.0645 4231.6494)">
			<stop  offset="0" style="stop-color:#54565A"/>
			<stop  offset="0.35" style="stop-color:#949598"/>
			<stop  offset="0.5" style="stop-color:#A4A5A8"/>
			<stop  offset="0.6121" style="stop-color:#999A9D"/>
			<stop  offset="0.65" style="stop-color:#949598"/>
			<stop  offset="0.9699" style="stop-color:#595B60"/>
			<stop  offset="1" style="stop-color:#54565A"/>
		</linearGradient>
		
			<rect x="-15.8" y="-16.2" style="clip-path:url(#SVGID_00000104694038579406666880000012964240143116328598_);fill:url(#SVGID_00000083789073779227768750000010065485287151973039_);" width="485.2" height="379"/>
	</g>
	<g>
		<defs>
			<path id="SVGID_00000066498462869871996860000011344047364289459903_" d="M380.2,333.8c-0.5,0-0.6,0.3-0.7,0.9
				c-0.2,1.4-0.9,3.2-1.9,4.3c-1.8,2.1-4.9,2.2-8.8,2.2c-5.6,0-7.5-0.5-8.7-1.7c-1.3-1.3-1.6-5.9-1.6-16.6v-12.9
				c0-11.3,0-13.3,0.1-15.6c0.2-2.5,0.7-3.8,2.8-4.1c0.9-0.1,1.9-0.2,2.4-0.2c0.3,0,0.6-0.1,0.6-0.4c0-0.4-0.4-0.6-1.1-0.6
				c-2.2,0-7.4,0.2-7.8,0.2c-0.4,0-4.9-0.2-8.2-0.2c-0.8,0-1.1,0.1-1.1,0.6c0,0.3,0.3,0.4,0.6,0.4c0.6,0,1.9,0.1,2.4,0.2
				c2.4,0.5,3,1.7,3.1,4.1c0.1,2.3,0.1,4.4,0.1,15.6v12.7c0,6.9,0,12.7-0.4,15.7c-0.3,2.1-0.7,3.7-2.1,4c-0.7,0.1-1.5,0.3-2.2,0.3
				c-0.4,0-0.6,0.2-0.6,0.4c0,0.4,0.4,0.6,1.1,0.6c1.1,0,2.7-0.1,4.1-0.1c1.4,0,2.7-0.1,3-0.1c2.1,0,4.3,0.1,7.4,0.2
				c3,0.1,6.8,0.2,12,0.2c3.8,0,4.1-0.3,4.6-2c0.6-2.1,1.1-6.4,1.1-7.2C380.6,334.1,380.5,333.8,380.2,333.8z"/>
		</defs>
		<clipPath id="SVGID_00000016780143032998537880000011797297620920819089_">
			<use xlink:href="#SVGID_00000066498462869871996860000011344047364289459903_"  style="overflow:visible;"/>
		</clipPath>
		
			<linearGradient id="SVGID_00000129902188793827714200000013541953932525599123_" gradientUnits="userSpaceOnUse" x1="48.3562" y1="243.1603" x2="45.0254" y2="237.3913" gradientTransform="matrix(0 -86.748 -86.748 0 21084.0645 4231.6494)">
			<stop  offset="0" style="stop-color:#54565A"/>
			<stop  offset="0.35" style="stop-color:#949598"/>
			<stop  offset="0.5" style="stop-color:#A4A5A8"/>
			<stop  offset="0.6121" style="stop-color:#999A9D"/>
			<stop  offset="0.65" style="stop-color:#949598"/>
			<stop  offset="0.9699" style="stop-color:#595B60"/>
			<stop  offset="1" style="stop-color:#54565A"/>
		</linearGradient>
		
			<rect x="-15.8" y="-16.2" style="clip-path:url(#SVGID_00000016780143032998537880000011797297620920819089_);fill:url(#SVGID_00000129902188793827714200000013541953932525599123_);" width="485.2" height="379"/>
	</g>
	<g>
		<defs>
			<path id="SVGID_00000155844690858369916820000007250810670680740542_" d="M435.8,312.8l-2-1.6c-6.9-5.4-8.8-8-8.8-12.2
				c0-5.3,3.9-8.4,8.9-8.4c6.6,0,8.6,3,9,3.8c0.4,0.8,0.9,2.7,1,3.6c0.1,0.6,0.1,0.9,0.6,0.9c0.4,0,0.5-0.5,0.5-1.7
				c0-4.9,0.3-7.3,0.3-7.7c0-0.4-0.1-0.5-0.7-0.5c-0.6,0-1.2-0.1-2.5-0.4c-1.8-0.4-3.9-0.7-6.7-0.7c-9.2,0-15,5.3-15,13
				c0,4.9,1.7,9.4,9.4,15.7l3.2,2.7c6.2,5.1,8.3,8,8.3,13c0,4.6-3.4,9.6-10.4,9.6c-4.8,0-9.6-2-10.7-7.4c-0.2-1-0.2-2-0.2-2.7
				c0-0.6-0.1-0.8-0.5-0.8c-0.4,0-0.5,0.3-0.6,1.2c-0.1,1.2-0.4,4.1-0.4,7.7c0,2,0.1,2.3,1.1,2.8c3,1.4,6.3,1.9,9.7,1.9
				c3.9,0,7.8-0.9,10.9-3.1c5-3.5,6.2-9,6.2-12C446.4,324,444.3,319.5,435.8,312.8z"/>
		</defs>
		<clipPath id="SVGID_00000080893837638817840090000007950577030373692077_">
			<use xlink:href="#SVGID_00000155844690858369916820000007250810670680740542_"  style="overflow:visible;"/>
		</clipPath>
		
			<linearGradient id="SVGID_00000081636316350715418370000008831696369497429148_" gradientUnits="userSpaceOnUse" x1="48.3562" y1="243.1603" x2="45.0254" y2="237.3913" gradientTransform="matrix(0 -86.748 -86.748 0 21084.0645 4231.6494)">
			<stop  offset="0" style="stop-color:#54565A"/>
			<stop  offset="0.35" style="stop-color:#949598"/>
			<stop  offset="0.5" style="stop-color:#A4A5A8"/>
			<stop  offset="0.6121" style="stop-color:#999A9D"/>
			<stop  offset="0.65" style="stop-color:#949598"/>
			<stop  offset="0.9699" style="stop-color:#595B60"/>
			<stop  offset="1" style="stop-color:#54565A"/>
		</linearGradient>
		
			<rect x="-15.8" y="-16.2" style="clip-path:url(#SVGID_00000080893837638817840090000007950577030373692077_);fill:url(#SVGID_00000081636316350715418370000008831696369497429148_);" width="485.2" height="379"/>
	</g>
	<g>
		<defs>
			<path id="SVGID_00000100379081957721877960000015726738275113376662_" d="M37.3,112.2c12.4-8.7,231.2-161.6,192.7-3.3
				c-5.2,21.3,38.1-38,76.4-37.1c32,0.7,118.9,64.9,136.9,76.5c1.1-1.1,2.3-2.1,3.4-3.2C397.2,101.9,280.6,6.8,247.3,0.4
				C210.1-6.7,82,78.7,8,126.4c0.5,0.9,1.1,1.7,1.7,2.6C20.5,122.7,31.3,116.4,37.3,112.2z"/>
		</defs>
		<clipPath id="SVGID_00000023985375577656887340000015521224271902664875_">
			<use xlink:href="#SVGID_00000100379081957721877960000015726738275113376662_"  style="overflow:visible;"/>
		</clipPath>
		
			<linearGradient id="SVGID_00000087371722473611208040000014958317035315103628_" gradientUnits="userSpaceOnUse" x1="48.3562" y1="243.1603" x2="45.0254" y2="237.3913" gradientTransform="matrix(0 -86.748 -86.748 0 21084.0645 4231.6494)">
			<stop  offset="0" style="stop-color:#54565A"/>
			<stop  offset="0.35" style="stop-color:#949598"/>
			<stop  offset="0.5" style="stop-color:#A4A5A8"/>
			<stop  offset="0.6121" style="stop-color:#999A9D"/>
			<stop  offset="0.65" style="stop-color:#949598"/>
			<stop  offset="0.9699" style="stop-color:#595B60"/>
			<stop  offset="1" style="stop-color:#54565A"/>
		</linearGradient>
		
			<rect x="-15.8" y="-16.2" style="clip-path:url(#SVGID_00000023985375577656887340000015521224271902664875_);fill:url(#SVGID_00000087371722473611208040000014958317035315103628_);" width="485.2" height="379"/>
	</g>
	<g>
		<defs>
			<rect id="SVGID_00000069372425379301967380000012474900204237755017_" y="174.1" width="461.9" height="1.3"/>
		</defs>
		<clipPath id="SVGID_00000025402825845187629350000001819167722161177508_">
			<use xlink:href="#SVGID_00000069372425379301967380000012474900204237755017_"  style="overflow:visible;"/>
		</clipPath>
		
			<linearGradient id="SVGID_00000038388072869348307350000005781136373098815918_" gradientUnits="userSpaceOnUse" x1="48.3562" y1="243.1603" x2="45.0254" y2="237.3913" gradientTransform="matrix(0 -86.748 -86.748 0 21084.0645 4231.6494)">
			<stop  offset="0" style="stop-color:#54565A"/>
			<stop  offset="0.35" style="stop-color:#949598"/>
			<stop  offset="0.5" style="stop-color:#A4A5A8"/>
			<stop  offset="0.6121" style="stop-color:#999A9D"/>
			<stop  offset="0.65" style="stop-color:#949598"/>
			<stop  offset="0.9699" style="stop-color:#595B60"/>
			<stop  offset="1" style="stop-color:#54565A"/>
		</linearGradient>
		
			<rect x="-15.8" y="-16.2" style="clip-path:url(#SVGID_00000025402825845187629350000001819167722161177508_);fill:url(#SVGID_00000038388072869348307350000005781136373098815918_);" width="485.2" height="379"/>
	</g>
	<g>
		<defs>
			<rect id="SVGID_00000142875097081513911730000002545828174439295366_" y="271.7" width="461.9" height="1.3"/>
		</defs>
		<clipPath id="SVGID_00000165208180298860163380000017469801391123148457_">
			<use xlink:href="#SVGID_00000142875097081513911730000002545828174439295366_"  style="overflow:visible;"/>
		</clipPath>
		
			<linearGradient id="SVGID_00000000195359521020625690000015398824500105268406_" gradientUnits="userSpaceOnUse" x1="48.3562" y1="243.1603" x2="45.0254" y2="237.3913" gradientTransform="matrix(0 -86.748 -86.748 0 21084.0645 4231.6494)">
			<stop  offset="0" style="stop-color:#54565A"/>
			<stop  offset="0.35" style="stop-color:#949598"/>
			<stop  offset="0.5" style="stop-color:#A4A5A8"/>
			<stop  offset="0.6121" style="stop-color:#999A9D"/>
			<stop  offset="0.65" style="stop-color:#949598"/>
			<stop  offset="0.9699" style="stop-color:#595B60"/>
			<stop  offset="1" style="stop-color:#54565A"/>
		</linearGradient>
		
			<rect x="-15.8" y="-16.2" style="clip-path:url(#SVGID_00000165208180298860163380000017469801391123148457_);fill:url(#SVGID_00000000195359521020625690000015398824500105268406_);" width="485.2" height="379"/>
	</g>
</g>
</svg>
